<svg width="288" height="180" viewBox="0 0 288 180" fill="none" xmlns="http://www.w3.org/2000/svg">
<rect width="288" height="180" fill="#185EF7"/>
<path d="M113.911 90.4555C113.911 73.5863 127.586 59.911 144.456 59.911C161.325 59.911 175 73.5863 175 90.4555C175 107.325 161.325 121 144.456 121H120.02C116.646 121 113.911 118.265 113.911 114.891V90.4555Z" fill="white"/>
<path fill-rule="evenodd" clip-rule="evenodd" d="M133.831 90.4556C133.831 92.6559 132.047 94.4397 129.847 94.4397C127.647 94.4397 125.863 92.6559 125.863 90.4556C125.863 88.2553 127.647 86.4715 129.847 86.4715C132.047 86.4715 133.831 88.2553 133.831 90.4556ZM148.439 90.4556C148.439 92.6559 146.656 94.4397 144.455 94.4397C142.255 94.4397 140.471 92.6559 140.471 90.4556C140.471 88.2553 142.255 86.4715 144.455 86.4715C146.656 86.4715 148.439 88.2553 148.439 90.4556ZM159.064 94.4397C161.264 94.4397 163.048 92.6559 163.048 90.4556C163.048 88.2553 161.264 86.4715 159.064 86.4715C156.863 86.4715 155.08 88.2553 155.08 90.4556C155.08 92.6559 156.863 94.4397 159.064 94.4397Z" fill="#185EF7"/>
</svg>
