<svg width="288" height="180" viewBox="0 0 288 180" fill="none" xmlns="http://www.w3.org/2000/svg">
<rect width="288" height="180" fill="#FFA800"/>
<path fill-rule="evenodd" clip-rule="evenodd" d="M162.306 95.0096C163.404 92.5574 163.753 92.5649 165.753 92.6076L165.753 92.6076C166.05 92.6139 166.382 92.621 166.758 92.621H172.584C174.534 92.621 175.579 93.9257 174.919 95.5348L174.461 96.9429C173.801 98.552 171.782 99.3316 169.833 99.3316H164.007C162.057 99.3316 161.012 98.0269 161.672 96.4178L162.306 95.0096ZM166.719 85.1168L167.218 83.9004C168.245 81.3956 169.709 79.3651 174.571 79.3651H186.397L190 70.8105H177.083C160.976 70.8105 157.918 76.9616 154.807 84.5499L149.139 98.3736C146.747 104.207 150.536 108.936 157.603 108.936H167.377C178.562 108.936 181.177 106.291 184.541 98.3499L185.818 95.2351C188.11 89.6468 184.479 85.1168 177.71 85.1168H166.719ZM142.169 107.4H129.689L139.41 83.6447H136.538L128.644 103.294H116.194L124.088 83.6447H121.437L111.563 107.4H98.8861L108.761 83.6447H105.299L101.232 73.6733H112.906H125.582H128.094H140.544H143.491H149.051H151.891C153.835 73.6733 155.157 75.6623 154.416 77.4734L142.169 107.4Z" fill="black"/>
</svg>
