<svg width="30" height="30" viewBox="0 0 30 30" fill="none" xmlns="http://www.w3.org/2000/svg">
<rect width="30" height="30" rx="15" fill="#195CF5"/>
<path d="M23.3331 10.7333H17.4999V9H23.3331V10.7333ZM24.7715 19.4C24.4031 20.5241 23.0806 22 20.5207 22C17.959 22 15.884 20.5015 15.884 17.0817C15.884 13.693 17.8215 11.951 20.439 11.951C23.0073 11.951 24.5756 13.4954 24.9181 15.7869C24.9831 16.2254 25.0089 16.8165 24.9973 17.6415H18.3082C18.4165 20.4244 21.2107 20.5119 22.1315 19.4H24.7715ZM18.3665 15.9333H22.504C22.4165 14.5926 21.5573 14.0102 20.4398 14.0102C19.2182 14.0102 18.5424 14.6758 18.3665 15.9333ZM10.3883 21.9896H5V9.0182H10.7941C15.3574 9.0884 15.4441 13.7363 13.0607 15.0034C15.9449 16.0954 16.0415 21.9896 10.3883 21.9896V21.9896ZM7.49997 14.2H10.4866C12.5766 14.2 12.9082 11.6 10.2266 11.6H7.49997V14.2V14.2ZM10.3258 16.8H7.49997V19.4139H10.2841C12.8299 19.4139 12.6741 16.8 10.3258 16.8V16.8Z" fill="white"/>
</svg>
