<svg width="171" height="16" viewBox="0 0 171 16" fill="none" xmlns="http://www.w3.org/2000/svg">
<path d="M5.568 8.256H5.856C6.88 8.256 7.552 8.448 7.872 8.832C8.256 9.152 8.448 9.824 8.448 10.848V15.936H2.592C1.568 15.936 0.864 15.776 0.48 15.456C0.16 15.072 0 14.368 0 13.344V6.144C0 4.096 0.448 2.656 1.344 1.824C2.304 0.991999 3.712 0.383999 5.568 0V8.256ZM19.008 8.256H19.296C20.32 8.256 20.992 8.448 21.312 8.832C21.696 9.152 21.888 9.824 21.888 10.848V15.936H16.032C15.008 15.936 14.304 15.776 13.92 15.456C13.6 15.072 13.44 14.368 13.44 13.344V6.144C13.44 4.096 13.888 2.656 14.784 1.824C15.744 0.991999 17.152 0.383999 19.008 0V8.256Z" fill="white"/>
<path fill-rule="evenodd" clip-rule="evenodd" d="M171 0H155V16H171V0ZM164.928 5.84282L163 2L161.072 5.84282L157 6.58359L159.88 9.69936L159.292 14L163 12.0828L166.708 14L166.12 9.69936L169 6.58359L164.928 5.84282Z" fill="white"/>
</svg>
