<svg width="301" height="419" viewBox="0 0 301 419" fill="none" xmlns="http://www.w3.org/2000/svg">
<g clip-path="url(#clip0)">
<rect width="301" height="419" fill="#1D2229"/>
<g filter="url(#filter0_f)">
<circle cx="291" cy="145" r="47" fill="url(#paint0_linear)" fill-opacity="0.5"/>
</g>
<g filter="url(#filter1_f)">
<circle cx="-39" cy="274" r="115" fill="url(#paint1_linear)"/>
</g>
<path opacity="0.5" d="M150.968 327.951C152.026 327.951 152.812 328.132 153.326 328.493C153.84 328.854 154.098 329.419 154.098 330.187C154.098 330.946 153.847 331.507 153.346 331.872C152.841 332.237 152.089 332.425 151.09 332.438L149.884 332.438C148.839 332.438 148.062 332.258 147.555 331.896C147.047 331.535 146.793 330.969 146.793 330.197C146.793 329.432 147.039 328.869 147.53 328.508C148.019 328.146 148.774 327.961 149.796 327.951L150.968 327.951ZM149.732 328.854C148.967 328.854 148.411 328.962 148.062 329.177C147.711 329.392 147.535 329.732 147.535 330.197C147.535 330.66 147.709 330.996 148.058 331.208C148.406 331.42 148.941 331.529 149.664 331.535L151.109 331.535C151.878 331.535 152.446 331.424 152.813 331.203C153.178 330.979 153.36 330.64 153.36 330.187C153.36 329.742 153.188 329.411 152.843 329.196C152.498 328.978 151.954 328.864 151.212 328.854L149.732 328.854ZM153.526 326.682C153.37 326.682 153.24 326.636 153.136 326.545C153.032 326.451 152.979 326.311 152.979 326.125C152.979 325.939 153.032 325.799 153.136 325.705C153.24 325.607 153.37 325.559 153.526 325.559C153.676 325.559 153.801 325.607 153.902 325.705C154.003 325.799 154.054 325.939 154.054 326.125C154.054 326.311 154.003 326.451 153.902 326.545C153.801 326.636 153.676 326.682 153.526 326.682ZM150.006 322.844L150.006 322.165C149.999 321.739 149.887 321.403 149.669 321.159C149.451 320.915 149.156 320.793 148.785 320.793C147.952 320.793 147.535 321.208 147.535 322.038C147.535 322.429 147.647 322.741 147.872 322.976C148.093 323.207 148.388 323.322 148.756 323.322L148.756 324.226C148.193 324.226 147.726 324.021 147.354 323.61C146.98 323.197 146.793 322.673 146.793 322.038C146.793 321.368 146.97 320.842 147.325 320.461C147.68 320.08 148.173 319.89 148.805 319.89C149.114 319.89 149.413 319.991 149.703 320.192C149.993 320.391 150.209 320.663 150.353 321.008C150.476 320.617 150.681 320.316 150.968 320.104C151.254 319.89 151.604 319.782 152.018 319.782C152.656 319.782 153.162 319.991 153.536 320.407C153.91 320.824 154.098 321.366 154.098 322.033C154.098 322.701 153.917 323.244 153.556 323.664C153.194 324.081 152.717 324.289 152.125 324.289L152.125 323.381C152.499 323.381 152.799 323.259 153.023 323.015C153.248 322.771 153.36 322.443 153.36 322.033C153.36 321.597 153.246 321.263 153.019 321.032C152.791 320.801 152.464 320.686 152.037 320.686C151.624 320.686 151.306 320.812 151.085 321.066C150.864 321.32 150.75 321.687 150.743 322.165L150.743 322.844L150.006 322.844ZM154 313.884L154 318.542L153.351 318.542L150.616 316.081C150.203 315.716 149.868 315.466 149.61 315.329C149.35 315.189 149.081 315.119 148.805 315.119C148.434 315.119 148.129 315.231 147.892 315.456C147.654 315.681 147.535 315.98 147.535 316.354C147.535 316.804 147.664 317.154 147.921 317.404C148.175 317.652 148.53 317.775 148.985 317.775L148.985 318.679C148.331 318.679 147.802 318.469 147.398 318.049C146.995 317.626 146.793 317.061 146.793 316.354C146.793 315.694 146.967 315.171 147.315 314.787C147.66 314.403 148.121 314.211 148.697 314.211C149.397 314.211 150.23 314.657 151.197 315.549L153.263 317.453L153.263 313.884L154 313.884ZM153.526 312.814C153.37 312.814 153.24 312.769 153.136 312.678C153.032 312.583 152.979 312.443 152.979 312.258C152.979 312.072 153.032 311.932 153.136 311.838C153.24 311.74 153.37 311.691 153.526 311.691C153.676 311.691 153.801 311.74 153.902 311.838C154.003 311.932 154.054 312.072 154.054 312.258C154.054 312.443 154.003 312.583 153.902 312.678C153.801 312.769 153.676 312.814 153.526 312.814ZM154 307.321L154 308.229L147.979 308.229L148.648 310.051L147.828 310.051L146.856 307.463L146.856 307.321L154 307.321ZM153.526 304.562C153.37 304.562 153.24 304.517 153.136 304.426C153.032 304.331 152.979 304.191 152.979 304.006C152.979 303.82 153.032 303.68 153.136 303.586C153.24 303.488 153.37 303.439 153.526 303.439C153.676 303.439 153.801 303.488 153.902 303.586C154.003 303.68 154.054 303.82 154.054 304.006C154.054 304.191 154.003 304.331 153.902 304.426C153.801 304.517 153.676 304.562 153.526 304.562ZM154 297.38L154 302.038L153.351 302.038L150.616 299.577C150.203 299.213 149.868 298.962 149.61 298.825C149.35 298.685 149.081 298.615 148.805 298.615C148.434 298.615 148.129 298.728 147.892 298.952C147.654 299.177 147.535 299.476 147.535 299.851C147.535 300.3 147.664 300.65 147.921 300.9C148.175 301.148 148.53 301.271 148.985 301.271L148.985 302.175C148.331 302.175 147.802 301.965 147.398 301.545C146.995 301.122 146.793 300.557 146.793 299.851C146.793 299.19 146.967 298.667 147.315 298.283C147.66 297.899 148.121 297.707 148.697 297.707C149.397 297.707 150.23 298.153 151.197 299.045L153.263 300.949L153.263 297.38L154 297.38ZM150.006 295.109L150.006 294.431C149.999 294.004 149.887 293.669 149.669 293.425C149.451 293.181 149.156 293.059 148.785 293.059C147.952 293.059 147.535 293.474 147.535 294.304C147.535 294.694 147.647 295.007 147.872 295.241C148.093 295.472 148.388 295.588 148.756 295.588L148.756 296.491C148.193 296.491 147.726 296.286 147.354 295.876C146.98 295.463 146.793 294.938 146.793 294.304C146.793 293.633 146.97 293.107 147.325 292.727C147.68 292.346 148.173 292.155 148.805 292.155C149.114 292.155 149.413 292.256 149.703 292.458C149.993 292.657 150.209 292.928 150.353 293.273C150.476 292.883 150.681 292.582 150.968 292.37C151.254 292.155 151.604 292.048 152.018 292.048C152.656 292.048 153.162 292.256 153.536 292.673C153.91 293.09 154.098 293.632 154.098 294.299C154.098 294.966 153.917 295.51 153.556 295.93C153.194 296.346 152.717 296.555 152.125 296.555L152.125 295.646C152.499 295.646 152.799 295.524 153.023 295.28C153.248 295.036 153.36 294.709 153.36 294.299C153.36 293.863 153.246 293.529 153.019 293.298C152.791 293.067 152.464 292.951 152.037 292.951C151.624 292.951 151.306 293.078 151.085 293.332C150.864 293.586 150.75 293.952 150.743 294.431L150.743 295.109L150.006 295.109Z" fill="white"/>
<g filter="url(#filter2_d)">
<rect width="0.5" height="16" transform="matrix(-1 0 0 1 150 37)" fill="white" fill-opacity="0.5"/>
<rect x="150" y="347" width="0.5" height="50" fill="white" fill-opacity="0.5"/>
<path d="M23.9326 22.7832C23.8512 23.5319 23.5827 24.1048 23.127 24.502C22.6745 24.8991 22.0706 25.0977 21.3154 25.0977C20.7881 25.0977 20.321 24.9658 19.9141 24.7021C19.5104 24.4385 19.1979 24.0658 18.9766 23.584C18.7552 23.099 18.6429 22.5456 18.6396 21.9238V21.001C18.6396 20.3695 18.7503 19.8096 18.9717 19.3213C19.193 18.833 19.5104 18.457 19.9238 18.1934C20.3405 17.9264 20.819 17.793 21.3594 17.793C22.1211 17.793 22.7217 17.9997 23.1611 18.4131C23.6038 18.8232 23.861 19.3913 23.9326 20.1172H23.3271C23.1774 18.9095 22.5215 18.3057 21.3594 18.3057C20.7148 18.3057 20.2005 18.5465 19.8164 19.0283C19.4355 19.5101 19.2451 20.1758 19.2451 21.0254V21.8945C19.2451 22.7148 19.4307 23.3691 19.8018 23.8574C20.1761 24.3457 20.6807 24.5898 21.3154 24.5898C21.9437 24.5898 22.4173 24.4401 22.7363 24.1406C23.0553 23.8379 23.2523 23.3854 23.3271 22.7832H23.9326ZM26.125 25H25.5244V17.8906H26.125V25ZM32.7363 18.4033H30.2998V25H29.6992V18.4033H27.2676V17.8906H32.7363V18.4033ZM36.0518 21.7676L38.2246 17.8906H38.918L36.3496 22.3242V25H35.749V22.3242L33.1855 17.8906H33.8984L36.0518 21.7676Z" fill="white" fill-opacity="0.5"/>
<path d="M273.956 22.0361C273.956 23.0387 273.772 23.8005 273.404 24.3213C273.036 24.8389 272.494 25.0977 271.778 25.0977C271.075 25.0977 270.536 24.8438 270.162 24.3359C269.788 23.8249 269.596 23.0827 269.586 22.1094V20.835C269.586 19.8356 269.771 19.0788 270.143 18.5645C270.514 18.0501 271.056 17.793 271.769 17.793C272.472 17.793 273.009 18.042 273.38 18.54C273.751 19.0348 273.943 19.7656 273.956 20.7324V22.0361ZM273.37 20.7617C273.37 19.9479 273.237 19.3327 272.97 18.916C272.706 18.4993 272.306 18.291 271.769 18.291C271.241 18.291 270.844 18.4945 270.577 18.9014C270.31 19.3083 270.174 19.9089 270.167 20.7031V22.0996C270.167 22.9102 270.304 23.5303 270.577 23.96C270.854 24.3896 271.254 24.6045 271.778 24.6045C272.299 24.6045 272.693 24.3945 272.96 23.9746C273.23 23.5547 273.367 22.9395 273.37 22.1289V20.7617ZM277.936 25H277.35V18.5938L275.416 19.3115V18.7646L277.838 17.8662H277.936V25Z" fill="white" fill-opacity="0.5"/>
<rect x="18" y="37" width="265" height="0.5" fill="white" fill-opacity="0.5"/>
<rect x="18" y="248" width="0.5" height="26" fill="white" fill-opacity="0.5"/>
<rect x="282" y="248" width="0.5" height="26" fill="white" fill-opacity="0.5"/>
</g>
<g filter="url(#filter3_d)">
<path d="M138.883 177.48C144.979 177.48 148.579 173.736 148.579 167.352V153.144C148.579 146.712 144.979 142.92 138.883 142.92C132.835 142.92 129.235 146.712 129.235 153.144V167.352C129.235 173.736 132.835 177.48 138.883 177.48ZM138.883 171.48C136.675 171.48 135.571 170.088 135.571 167.4V153.192C135.571 150.456 136.675 149.016 138.883 149.016C141.091 149.016 142.243 150.456 142.243 153.192V167.4C142.243 170.088 141.091 171.48 138.883 171.48ZM163.137 155.016C161.361 155.016 159.921 155.688 159.057 156.456V152.088C159.057 150.168 160.065 149.16 161.937 149.16C163.809 149.16 164.673 150.264 164.913 152.04H171.297C171.153 146.376 167.505 142.824 161.985 142.824C156.369 142.824 152.625 146.472 152.625 152.088V168.312C152.625 173.88 156.417 177.576 162.033 177.576C167.649 177.576 171.489 173.88 171.489 168.312V163.56C171.489 158.664 168.129 155.016 163.137 155.016ZM165.057 168.264C165.057 170.136 163.905 171.24 162.033 171.24C160.161 171.24 159.057 170.136 159.057 168.264V164.04C159.057 162.12 160.161 160.968 162.081 160.968C163.953 160.968 165.057 162.12 165.057 164.04V168.264Z" fill="white"/>
<path d="M133.115 199.66V203H131.99V194.469H135.137C136.07 194.469 136.801 194.707 137.328 195.184C137.859 195.66 138.125 196.291 138.125 197.076C138.125 197.904 137.865 198.543 137.346 198.992C136.83 199.438 136.09 199.66 135.125 199.66H133.115ZM133.115 198.74H135.137C135.738 198.74 136.199 198.6 136.52 198.318C136.84 198.033 137 197.623 137 197.088C137 196.58 136.84 196.174 136.52 195.869C136.199 195.564 135.76 195.406 135.201 195.395H133.115V198.74ZM142.455 197.633C142.291 197.605 142.113 197.592 141.922 197.592C141.211 197.592 140.729 197.895 140.475 198.5V203H139.391V196.66H140.445L140.463 197.393C140.818 196.826 141.322 196.543 141.975 196.543C142.186 196.543 142.346 196.57 142.455 196.625V197.633ZM143.053 199.771C143.053 199.15 143.174 198.592 143.416 198.096C143.662 197.6 144.002 197.217 144.436 196.947C144.873 196.678 145.371 196.543 145.93 196.543C146.793 196.543 147.49 196.842 148.021 197.439C148.557 198.037 148.824 198.832 148.824 199.824V199.9C148.824 200.518 148.705 201.072 148.467 201.564C148.232 202.053 147.895 202.434 147.453 202.707C147.016 202.98 146.512 203.117 145.941 203.117C145.082 203.117 144.385 202.818 143.85 202.221C143.318 201.623 143.053 200.832 143.053 199.848V199.771ZM144.143 199.9C144.143 200.604 144.305 201.168 144.629 201.594C144.957 202.02 145.395 202.232 145.941 202.232C146.492 202.232 146.93 202.018 147.254 201.588C147.578 201.154 147.74 200.549 147.74 199.771C147.74 199.076 147.574 198.514 147.242 198.084C146.914 197.65 146.477 197.434 145.93 197.434C145.395 197.434 144.963 197.646 144.635 198.072C144.307 198.498 144.143 199.107 144.143 199.9ZM151.303 196.66V203.732C151.303 204.951 150.75 205.561 149.645 205.561C149.406 205.561 149.186 205.525 148.982 205.455V204.588C149.107 204.619 149.271 204.635 149.475 204.635C149.717 204.635 149.9 204.568 150.025 204.436C150.154 204.307 150.219 204.08 150.219 203.756V196.66H151.303ZM150.107 194.979C150.107 194.807 150.16 194.66 150.266 194.539C150.375 194.414 150.533 194.352 150.74 194.352C150.951 194.352 151.111 194.412 151.221 194.533C151.33 194.654 151.385 194.803 151.385 194.979C151.385 195.154 151.33 195.301 151.221 195.418C151.111 195.535 150.951 195.594 150.74 195.594C150.529 195.594 150.371 195.535 150.266 195.418C150.16 195.301 150.107 195.154 150.107 194.979ZM155.686 203.117C154.826 203.117 154.127 202.836 153.588 202.273C153.049 201.707 152.779 200.951 152.779 200.006V199.807C152.779 199.178 152.898 198.617 153.137 198.125C153.379 197.629 153.715 197.242 154.145 196.965C154.578 196.684 155.047 196.543 155.551 196.543C156.375 196.543 157.016 196.814 157.473 197.357C157.93 197.9 158.158 198.678 158.158 199.689V200.141H153.863C153.879 200.766 154.061 201.271 154.408 201.658C154.76 202.041 155.205 202.232 155.744 202.232C156.127 202.232 156.451 202.154 156.717 201.998C156.982 201.842 157.215 201.635 157.414 201.377L158.076 201.893C157.545 202.709 156.748 203.117 155.686 203.117ZM155.551 197.434C155.113 197.434 154.746 197.594 154.449 197.914C154.152 198.23 153.969 198.676 153.898 199.25H157.074V199.168C157.043 198.617 156.895 198.191 156.629 197.891C156.363 197.586 156.004 197.434 155.551 197.434ZM161.961 202.232C162.348 202.232 162.686 202.115 162.975 201.881C163.264 201.646 163.424 201.354 163.455 201.002H164.48C164.461 201.365 164.336 201.711 164.105 202.039C163.875 202.367 163.566 202.629 163.18 202.824C162.797 203.02 162.391 203.117 161.961 203.117C161.098 203.117 160.41 202.83 159.898 202.256C159.391 201.678 159.137 200.889 159.137 199.889V199.707C159.137 199.09 159.25 198.541 159.477 198.061C159.703 197.58 160.027 197.207 160.449 196.941C160.875 196.676 161.377 196.543 161.955 196.543C162.666 196.543 163.256 196.756 163.725 197.182C164.197 197.607 164.449 198.16 164.48 198.84H163.455C163.424 198.43 163.268 198.094 162.986 197.832C162.709 197.566 162.365 197.434 161.955 197.434C161.404 197.434 160.977 197.633 160.672 198.031C160.371 198.426 160.221 198.998 160.221 199.748V199.953C160.221 200.684 160.371 201.246 160.672 201.641C160.973 202.035 161.402 202.232 161.961 202.232ZM167.17 195.125V196.66H168.354V197.498H167.17V201.43C167.17 201.684 167.223 201.875 167.328 202.004C167.434 202.129 167.613 202.191 167.867 202.191C167.992 202.191 168.164 202.168 168.383 202.121V203C168.098 203.078 167.82 203.117 167.551 203.117C167.066 203.117 166.701 202.971 166.455 202.678C166.209 202.385 166.086 201.969 166.086 201.43V197.498H164.932V196.66H166.086V195.125H167.17Z" fill="white"/>
</g>
</g>
<defs>
<filter id="filter0_f" x="229" y="83" width="124" height="124" filterUnits="userSpaceOnUse" color-interpolation-filters="sRGB">
<feFlood flood-opacity="0" result="BackgroundImageFix"/>
<feBlend mode="normal" in="SourceGraphic" in2="BackgroundImageFix" result="shape"/>
<feGaussianBlur stdDeviation="7.5" result="effect1_foregroundBlur"/>
</filter>
<filter id="filter1_f" x="-184" y="129" width="290" height="290" filterUnits="userSpaceOnUse" color-interpolation-filters="sRGB">
<feFlood flood-opacity="0" result="BackgroundImageFix"/>
<feBlend mode="normal" in="SourceGraphic" in2="BackgroundImageFix" result="shape"/>
<feGaussianBlur stdDeviation="15" result="effect1_foregroundBlur"/>
</filter>
<filter id="filter2_d" x="13" y="12.793" width="275" height="389.207" filterUnits="userSpaceOnUse" color-interpolation-filters="sRGB">
<feFlood flood-opacity="0" result="BackgroundImageFix"/>
<feColorMatrix in="SourceAlpha" type="matrix" values="0 0 0 0 0 0 0 0 0 0 0 0 0 0 0 0 0 0 127 0"/>
<feOffset/>
<feGaussianBlur stdDeviation="2.5"/>
<feColorMatrix type="matrix" values="0 0 0 0 1 0 0 0 0 1 0 0 0 0 1 0 0 0 0.4 0"/>
<feBlend mode="normal" in2="BackgroundImageFix" result="effect1_dropShadow"/>
<feBlend mode="normal" in="SourceGraphic" in2="effect1_dropShadow" result="shape"/>
</filter>
<filter id="filter3_d" x="42" y="92" width="216" height="154" filterUnits="userSpaceOnUse" color-interpolation-filters="sRGB">
<feFlood flood-opacity="0" result="BackgroundImageFix"/>
<feColorMatrix in="SourceAlpha" type="matrix" values="0 0 0 0 0 0 0 0 0 0 0 0 0 0 0 0 0 0 127 0"/>
<feOffset/>
<feGaussianBlur stdDeviation="20"/>
<feColorMatrix type="matrix" values="0 0 0 0 1 0 0 0 0 0.979167 0 0 0 0 0.979167 0 0 0 0.25 0"/>
<feBlend mode="normal" in2="BackgroundImageFix" result="effect1_dropShadow"/>
<feBlend mode="normal" in="SourceGraphic" in2="effect1_dropShadow" result="shape"/>
</filter>
<linearGradient id="paint0_linear" x1="291" y1="98" x2="291" y2="192" gradientUnits="userSpaceOnUse">
<stop stop-color="#535B68"/>
<stop offset="1" stop-color="#282C33"/>
</linearGradient>
<linearGradient id="paint1_linear" x1="-39" y1="159" x2="-39" y2="389" gradientUnits="userSpaceOnUse">
<stop stop-color="#535B68"/>
<stop offset="1" stop-color="#282C33"/>
</linearGradient>
<clipPath id="clip0">
<rect width="301" height="419" fill="white"/>
</clipPath>
</defs>
</svg>
